<svg width="62" height="41" viewBox="0 0 62 41" fill="none" xmlns="http://www.w3.org/2000/svg">
<path d="M28.1549 15.9952H21.2416C16.7114 15.9952 14.1599 13.7099 12.2627 11.1535C13.278 12.5377 14.2239 14.2369 15.1679 15.9988C15.7257 17.0407 16.2834 18.1043 16.8533 19.1371C19.0764 23.1657 21.4945 25.346 24.9237 25.346C27.6521 25.346 30.1692 23.4536 32.7184 19.2053C33.3322 18.1822 33.9479 17.1029 34.5691 15.9988C35.987 13.4787 37.4315 10.8324 38.9441 8.44327C36.7361 11.8688 34.289 15.9958 28.1549 15.9958V15.9952Z" fill="url(#paint0_linear_72_11591)"/>
<path d="M12.2624 11.1535C9.64328 7.58188 7.74246 7.82514 7 8.0678V15.9988H15.1677C14.2242 14.2375 13.2777 12.5383 12.2624 11.1535Z" fill="url(#paint1_radial_72_11591)"/>
<path d="M38.9434 8.44265C37.4307 10.8324 35.9863 13.4781 34.5684 15.9982H55.2781V1.06756C48.2737 -1.57028 43.9046 0.603975 38.9434 8.44205V8.44265Z" fill="url(#paint2_linear_72_11591)"/>
<path d="M38.5618 25.9327L39.7557 26.2273C40.9666 26.5218 41.6487 27.0844 41.6487 27.7061C41.6487 28.4257 41.1296 28.9496 39.8372 28.9496C38.4302 28.9496 36.9253 28.5898 35.7634 27.9681V30.2915C36.8432 30.7333 38.3318 31.0116 39.4443 31.0116C42.4871 31.0116 44.0741 29.8339 44.0741 27.6741C44.0741 26.0383 42.9942 24.8437 41.0638 24.3693L39.5589 23.9932C38.5612 23.7476 37.9756 23.29 37.9756 22.7335C37.9756 21.9808 38.6668 21.5884 40.0575 21.5884C40.9811 21.5884 42.2282 21.9077 43.2441 22.4359V20.3015C42.3706 19.9489 41.0891 19.5602 39.9187 19.5602C37.1704 19.5602 35.5672 20.9015 35.5672 22.7993C35.5672 24.3862 36.5976 25.4431 38.5612 25.9339L38.5618 25.9327ZM9.64267 34.4619C9.85696 34.4619 10.0097 34.3062 10.0097 34.1154C10.0097 33.8661 9.83342 33.7448 9.64267 33.7448C9.44529 33.7448 9.26842 33.8661 9.26842 34.1154C9.26842 34.3056 9.42476 34.4619 9.64267 34.4619ZM8.63824 34.4619C8.85253 34.4619 9.00524 34.3062 9.00524 34.1154C9.00524 33.8661 8.82898 33.7448 8.63824 33.7448C8.44085 33.7448 8.26399 33.8661 8.26399 34.1154C8.26399 34.3056 8.42033 34.4619 8.63824 34.4619ZM29.7826 34.4619C29.9969 34.4619 30.1496 34.3062 30.1496 34.1154C30.1496 33.8661 29.9728 33.7448 29.7826 33.7448C29.5852 33.7448 29.4084 33.8661 29.4084 34.1154C29.4084 34.3056 29.5647 34.4619 29.7826 34.4619ZM11.8767 34.2706C12.0916 34.2706 12.2437 34.1148 12.2437 33.9247C12.2437 33.6754 12.0668 33.5541 11.8767 33.5541C11.6793 33.5541 11.503 33.6754 11.503 33.9247C11.503 34.1148 11.6588 34.2706 11.8767 34.2706ZM30.7865 34.4619C31.0007 34.4619 31.1535 34.3062 31.1535 34.1154C31.1535 33.8661 30.9772 33.7448 30.7865 33.7448C30.5891 33.7448 30.4122 33.8661 30.4122 34.1154C30.4122 34.3056 30.5686 34.4619 30.7865 34.4619ZM12.8811 34.2706C13.096 34.2706 13.2481 34.1148 13.2481 33.9247C13.2481 33.6754 13.0719 33.5541 12.8811 33.5541C12.6837 33.5541 12.5075 33.6754 12.5075 33.9247C12.5075 34.1148 12.6632 34.2706 12.8811 34.2706ZM32.7959 37.2247C32.7959 37.5573 32.6366 37.7927 32.2901 37.7927H31.704C31.3231 37.7927 31.1637 37.5917 31.1637 37.2247V34.981H30.4883V35.4416C29.6607 35.6456 28.1444 36.2173 28.1444 37.2633C28.1444 38.0076 28.6949 38.4235 29.4875 38.4235C30.0066 38.4235 30.3844 38.2291 30.5921 37.8796C30.7515 38.3058 31.1082 38.5545 31.8078 38.5545H32.211C33.0869 38.5545 33.4708 38.0728 33.4708 37.2078V35.75H32.7959V37.2253V37.2247ZM30.4889 37.0062C30.4889 37.4493 29.9867 37.6605 29.5611 37.6605C29.1217 37.6605 28.8319 37.4879 28.8271 37.1794C28.8192 36.6911 29.8243 36.3513 30.4889 36.1955V37.0062ZM32.9342 39.0114C32.7368 39.0114 32.5605 39.1328 32.5605 39.3815C32.5605 39.5716 32.7163 39.7279 32.9342 39.7279C33.149 39.7279 33.3012 39.5716 33.3012 39.3815C33.3012 39.1322 33.1243 39.0114 32.9342 39.0114ZM52.2743 37.2247C52.2743 37.5917 52.115 37.7927 51.7347 37.7927H51.1806C50.8624 37.7927 50.7025 37.6545 50.6554 37.3949C50.6475 37.3623 50.6439 37.2144 50.6439 37.1734V37.0635L50.6403 37.0611V35.6112H49.9648V37.1209C49.9648 37.5537 49.7294 37.7891 49.2966 37.7891C48.9194 37.7891 48.6598 37.5018 48.6598 37.107V36.0887H47.9843V37.0412C47.9843 37.0696 47.9825 37.1764 47.9783 37.2012C47.9518 37.5821 47.72 37.7891 47.3155 37.7891C46.9383 37.7891 46.6787 37.5018 46.6781 37.107V36.0887H46.0033V37.0442C46.0033 37.072 46.0014 37.174 45.9978 37.1987C45.9719 37.5627 45.7612 37.7704 45.402 37.7897C45.3851 37.7915 45.3145 37.7927 45.2958 37.7927H44.2032C44.63 37.4179 44.8835 36.944 44.901 36.4696C44.9022 36.4352 44.9022 36.4008 44.901 36.3676C44.8672 35.6064 44.071 35.2515 43.2616 35.2515C42.7008 35.2515 42.0875 35.3933 41.6131 35.6118L41.4918 35.9897C41.5817 36.5505 41.8521 37.2259 42.236 37.7939H40.5078V37.3587C40.5078 37.3195 40.506 37.1625 40.5018 37.1257C40.4571 36.201 39.8312 35.6366 38.9879 35.6366C38.1845 35.6366 37.509 36.2945 37.509 37.1571C37.509 38.033 38.0976 38.5557 38.8835 38.5557H39.8282C39.7594 39.1642 39.2837 39.4291 38.6861 39.4291C38.336 39.4291 37.8712 39.2686 37.5688 39.0905L37.5676 39.7817C37.876 40.0135 38.3885 40.1571 38.7966 40.1523C39.6344 40.142 40.4415 39.6465 40.5036 38.5557H41.965C41.9789 38.5557 42.0344 38.5557 42.0483 38.5557C42.4926 38.5509 42.9006 38.4724 43.2598 38.3414C43.4952 38.4833 43.724 38.5563 44.056 38.5563H45.364C46.0527 38.5563 46.4548 38.2756 46.6075 37.7837C46.7288 38.2165 47.0922 38.5563 47.5944 38.5563C48.1485 38.5563 48.4769 38.269 48.5982 37.8326C48.7232 38.2448 49.0558 38.5563 49.5405 38.5563C50.0011 38.5563 50.3162 38.3656 50.4894 38.0438C50.6198 38.3493 50.8691 38.5527 51.3109 38.5563C51.3152 38.5563 51.3315 38.5563 51.3357 38.5563H51.7178C52.6075 38.5563 52.9468 38.0058 52.9468 37.2096V33.8474H52.2719V37.2271L52.2743 37.2247ZM39.8342 37.7927H38.9861C38.4422 37.7927 38.1863 37.4945 38.1863 37.1245C38.1863 36.6603 38.5775 36.3977 38.9795 36.3977C39.4437 36.3977 39.8348 36.6054 39.8348 37.1975V37.7933L39.8342 37.7927ZM42.964 37.7022C42.6386 37.2313 42.3477 36.6187 42.1853 36.1611C42.4968 36.05 42.9018 35.9637 43.293 35.9637C43.8399 35.9637 44.2419 36.2028 44.2419 36.5698C44.2419 36.9609 43.788 37.4909 42.964 37.7022ZM53.9892 38.5545H54.6641L54.6773 33.845H54.0019L53.9886 38.5545H53.9892ZM34.5778 35.5623L34.4112 36.3241C35.6124 36.2342 36.2535 36.7774 36.2535 37.2452C36.2535 37.5501 36.032 37.7927 35.5159 37.7927H34.1311V38.5545H35.4748C36.3682 38.5545 36.8553 38.0378 36.9114 37.4293C37.0092 36.3718 36.0151 35.4175 34.5778 35.5629V35.5623ZM12.3723 34.7003C11.5725 34.7003 11.0111 35.348 11.0111 36.0748C11.0111 36.909 11.5827 37.3213 12.2992 37.3213H13.0749C13.0296 37.6122 12.822 37.7921 12.3656 37.7927H10.5602C10.204 37.7927 10.0441 37.6159 10.0242 37.2935C10.0211 37.2724 10.0199 37.18 10.0199 37.1559V34.981H9.34448V35.4416C8.51691 35.6456 7 36.2173 7 37.2633C7 38.0076 7.55051 38.4235 8.34307 38.4235C8.86218 38.4235 9.24005 38.2291 9.4477 37.8796C9.60706 38.3058 9.9638 38.5545 10.6634 38.5545H10.7497L12.42 38.5581C13.3103 38.5617 13.7467 37.9611 13.7528 37.1831C13.7528 37.1776 13.7528 37.1565 13.7528 37.1511V36.2384C13.7528 35.2653 13.1709 34.7009 12.3711 34.7009L12.3723 34.7003ZM9.34448 37.0062C9.34448 37.4493 8.84226 37.6605 8.41671 37.6605C7.97727 37.6605 7.68753 37.4879 7.6827 37.1794C7.67485 36.6911 8.67989 36.3513 9.34448 36.1955V37.0062ZM13.0888 36.6983H12.3928C11.9147 36.6983 11.6135 36.4454 11.6135 36.047C11.6135 35.6837 11.9147 35.3583 12.3511 35.3583C12.7839 35.3583 13.0888 35.6215 13.0888 36.1961V36.6983ZM50.4182 19.5506C47.0596 19.5506 44.9952 21.915 44.9952 25.2681C44.9952 29.0486 47.5528 31.0188 50.7966 31.0188C52.0419 31.0188 53.4164 30.7713 54.678 30.1816V28.0025C53.187 28.6418 51.9912 28.9544 50.6475 28.9544C49.1469 28.9544 47.8389 28.1371 47.4936 26.2677H55.1693C55.7711 22.6586 54.1124 19.5506 50.4182 19.5506ZM47.452 24.3282C47.7115 22.5826 48.76 21.615 50.4182 21.615C51.9031 21.615 52.9697 22.6067 52.9697 24.3282H47.452ZM24.4617 37.2247C24.4617 37.5917 24.3023 37.7927 23.922 37.7927H23.4017C23.0208 37.7927 22.8615 37.5917 22.8615 37.2247V33.845H22.186V37.2247C22.186 37.5917 22.0266 37.7927 21.6464 37.7927H21.1272C20.7536 37.7927 20.5942 37.602 20.587 37.2452C20.5906 37.2138 20.5936 37.0822 20.5936 37.0515C20.5936 36.2378 19.9254 35.4863 18.8594 35.604C18.3711 35.6577 17.9003 35.9643 17.4602 36.4454L17.4741 33.845H16.7986L16.7848 37.3491L16.518 37.7927H15.8003C15.4194 37.7927 15.2606 37.5917 15.2606 37.2247V33.845H14.5852V37.2072C14.5852 38.0034 14.9244 38.5539 15.8141 38.5539H18.7345C19.5379 38.5539 20.0848 38.2316 20.3619 37.8096C20.4657 38.2599 20.7186 38.5539 21.2727 38.5539H21.6325C22.1794 38.5539 22.5156 38.3462 22.6955 38.0034C22.8234 38.339 23.08 38.5539 23.5472 38.5539H23.9081C24.7979 38.5539 25.1371 38.0034 25.1371 37.2072V33.845H24.4617V37.2247ZM18.7725 37.7927H17.0552C17.6335 36.8994 18.3747 36.3947 18.9705 36.3555C19.5868 36.315 19.9188 36.6603 19.9188 37.0478C19.9188 37.4221 19.562 37.7927 18.7725 37.7927ZM31.9303 39.0114C31.7329 39.0114 31.5567 39.1328 31.5567 39.3815C31.5567 39.5716 31.7124 39.7279 31.9303 39.7279C32.1452 39.7279 32.2979 39.5716 32.2979 39.3815C32.2979 39.1322 32.1211 39.0114 31.9303 39.0114Z" fill="#0080FF"/>
<defs>
<linearGradient id="paint0_linear_72_11591" x1="20.1678" y1="3.76276" x2="32.8391" y2="20.5248" gradientUnits="userSpaceOnUse">
<stop offset="0.56" stop-color="#32C2FF"/>
<stop offset="0.63" stop-color="#28B4FF"/>
<stop offset="0.97" stop-color="#0076FF"/>
</linearGradient>
<radialGradient id="paint1_radial_72_11591" cx="0" cy="0" r="1" gradientUnits="userSpaceOnUse" gradientTransform="translate(15.1779 16.1841) scale(11.4067 11.4067)">
<stop offset="0.15" stop-color="#0027B9"/>
<stop offset="0.35" stop-color="#0043CF"/>
<stop offset="0.62" stop-color="#0064E9"/>
<stop offset="0.85" stop-color="#0078F9"/>
<stop offset="1" stop-color="#0080FF"/>
</radialGradient>
<linearGradient id="paint2_linear_72_11591" x1="37.5406" y1="21.9403" x2="56.2645" y2="2.00922" gradientUnits="userSpaceOnUse">
<stop offset="0.12" stop-color="#00FF86"/>
<stop offset="0.17" stop-color="#00F58E"/>
<stop offset="0.54" stop-color="#00B1CA"/>
<stop offset="0.81" stop-color="#0086F0"/>
<stop offset="0.94" stop-color="#0076FF"/>
</linearGradient>
</defs>
</svg>
